<svg id="svg" version="1.1" width="400" height="423.5294117647059" xmlns="http://www.w3.org/2000/svg" xmlns:xlink="http://www.w3.org/1999/xlink" style="display: block;"><g id="svgg"><path id="path0" d="" stroke="none" fill="#33cc66" fill-rule="evenodd"></path><path id="path1" d="" stroke="none" fill="#33cc66" fill-rule="evenodd"></path><path id="path2" d="M197.600 3.948 C 197.600 4.140,196.340 4.421,194.800 4.573 C 193.260 4.724,192.000 5.018,192.000 5.224 C 192.000 5.431,191.550 5.600,191.000 5.600 C 190.450 5.600,190.000 5.763,190.000 5.962 C 190.000 6.162,189.100 6.449,188.000 6.600 C 186.900 6.751,186.000 7.038,186.000 7.238 C 186.000 7.437,185.712 7.600,185.360 7.600 C 185.009 7.600,184.109 7.870,183.360 8.200 C 182.612 8.530,181.388 9.070,180.640 9.400 C 179.891 9.730,179.112 10.000,178.907 10.000 C 178.703 10.000,177.650 10.449,176.568 10.998 C 175.486 11.547,174.375 11.997,174.100 11.998 C 173.825 11.999,173.600 12.180,173.600 12.400 C 173.600 12.620,173.328 12.800,172.995 12.800 C 172.662 12.800,172.077 12.974,171.695 13.186 C 170.443 13.882,167.253 15.200,166.822 15.200 C 166.590 15.200,166.400 15.336,166.400 15.502 C 166.400 15.669,165.815 16.036,165.100 16.320 C 164.385 16.603,163.290 17.097,162.668 17.417 C 162.045 17.738,161.295 18.000,161.001 18.000 C 160.707 18.000,160.407 18.135,160.333 18.300 C 160.207 18.585,154.071 21.672,151.300 22.845 C 150.585 23.148,150.000 23.512,150.000 23.654 C 150.000 23.797,149.535 24.030,148.966 24.173 C 148.397 24.316,147.553 24.785,147.090 25.216 C 146.628 25.647,146.004 26.000,145.704 26.000 C 145.061 26.000,141.860 27.665,141.667 28.100 C 141.593 28.265,141.278 28.400,140.967 28.400 C 140.655 28.400,140.400 28.560,140.400 28.755 C 140.400 28.951,139.770 29.229,139.000 29.374 C 138.230 29.518,137.600 29.808,137.600 30.018 C 137.600 30.228,137.330 30.400,137.000 30.400 C 136.670 30.400,136.400 30.580,136.400 30.800 C 136.400 31.020,136.202 31.200,135.960 31.200 C 135.330 31.200,132.695 32.477,132.071 33.085 C 131.781 33.368,131.286 33.600,130.971 33.600 C 130.657 33.600,130.400 33.766,130.400 33.968 C 130.400 34.171,129.860 34.455,129.200 34.600 C 128.540 34.745,128.000 34.987,128.000 35.137 C 128.000 35.288,127.325 35.725,126.500 36.107 C 124.809 36.892,123.499 37.670,123.196 38.068 C 123.084 38.216,122.499 38.460,121.896 38.612 C 121.293 38.763,120.800 39.028,120.800 39.200 C 120.800 39.372,120.350 39.626,119.800 39.764 C 119.250 39.902,118.800 40.192,118.800 40.408 C 118.800 40.623,118.440 40.800,118.000 40.800 C 117.560 40.800,117.198 40.935,117.195 41.100 C 117.193 41.265,116.428 41.759,115.495 42.197 C 114.563 42.636,113.562 43.221,113.271 43.497 C 112.981 43.774,112.501 44.000,112.205 44.000 C 111.909 44.000,111.607 44.135,111.533 44.300 C 111.402 44.596,109.903 45.464,106.400 47.271 C 105.410 47.782,104.362 48.425,104.071 48.700 C 103.781 48.975,103.286 49.200,102.971 49.200 C 102.657 49.200,102.400 49.380,102.400 49.600 C 102.400 49.820,102.130 50.000,101.800 50.000 C 101.470 50.000,101.200 50.177,101.200 50.392 C 101.200 50.608,100.750 50.898,100.200 51.036 C 99.650 51.174,99.200 51.447,99.200 51.643 C 99.200 51.840,98.943 52.000,98.629 52.000 C 98.314 52.000,97.819 52.225,97.529 52.500 C 97.238 52.775,96.460 53.262,95.800 53.583 C 95.140 53.903,94.330 54.380,94.000 54.643 C 93.670 54.906,92.500 55.616,91.400 56.221 C 90.300 56.826,89.310 57.429,89.200 57.561 C 89.090 57.692,88.133 58.250,87.074 58.800 C 86.014 59.350,84.830 60.093,84.443 60.451 C 84.055 60.809,83.302 61.240,82.769 61.408 C 82.236 61.577,81.530 62.004,81.200 62.357 C 80.870 62.711,79.925 63.343,79.100 63.763 C 78.275 64.183,77.600 64.678,77.600 64.863 C 77.600 65.048,77.343 65.200,77.029 65.200 C 76.714 65.200,76.217 65.425,75.922 65.700 C 75.628 65.975,74.716 66.543,73.894 66.963 C 73.072 67.383,72.400 67.878,72.400 68.063 C 72.400 68.248,72.143 68.400,71.829 68.400 C 71.514 68.400,71.019 68.625,70.729 68.901 C 70.438 69.176,69.525 69.757,68.700 70.192 C 67.875 70.626,67.200 71.100,67.200 71.244 C 67.200 71.389,66.885 71.621,66.500 71.760 C 65.393 72.160,61.682 74.588,61.200 75.227 C 61.090 75.373,60.595 75.619,60.100 75.773 C 59.605 75.928,59.200 76.222,59.200 76.427 C 59.200 76.632,58.930 76.800,58.600 76.800 C 58.270 76.800,58.000 76.977,58.000 77.192 C 58.000 77.408,57.550 77.698,57.000 77.836 C 56.450 77.974,56.000 78.206,56.000 78.352 C 56.000 78.499,55.370 78.957,54.600 79.372 C 53.830 79.787,53.200 80.278,53.200 80.463 C 53.200 80.648,52.943 80.800,52.629 80.800 C 52.314 80.800,51.819 81.030,51.529 81.310 C 51.238 81.591,49.830 82.613,48.400 83.581 C 46.970 84.550,45.563 85.580,45.272 85.871 C 44.981 86.162,44.525 86.400,44.260 86.400 C 43.994 86.400,43.517 86.760,43.200 87.200 C 42.883 87.640,42.406 88.000,42.141 88.000 C 41.875 88.000,41.304 88.450,40.871 89.000 C 40.439 89.550,39.805 90.000,39.462 90.000 C 39.120 90.000,38.696 90.229,38.520 90.510 C 38.344 90.790,37.693 91.342,37.074 91.736 C 35.825 92.531,34.655 93.445,33.549 94.491 C 33.147 94.871,32.139 95.681,31.309 96.291 C 29.704 97.471,28.150 98.772,26.402 100.400 C 25.812 100.950,24.805 101.869,24.165 102.442 C 23.524 103.015,22.550 104.055,22.000 104.754 C 21.450 105.453,20.813 106.244,20.585 106.513 C 19.862 107.362,18.800 109.888,18.800 110.760 C 18.800 111.222,18.620 111.600,18.400 111.600 C 18.180 111.600,18.000 112.140,18.000 112.800 C 18.000 113.460,17.835 114.000,17.634 114.000 C 17.433 114.000,17.142 115.350,16.987 117.000 C 16.833 118.650,16.547 120.000,16.353 120.000 C 16.159 120.000,16.000 120.864,16.000 121.920 C 16.000 122.976,15.830 124.011,15.622 124.220 C 15.413 124.429,15.117 126.760,14.963 129.400 C 14.808 132.040,14.543 134.291,14.374 134.403 C 14.205 134.515,13.935 137.800,13.776 141.703 C 13.616 145.606,13.331 148.800,13.143 148.800 C 12.954 148.800,12.800 151.104,12.800 153.920 C 12.800 157.000,12.631 159.209,12.375 159.465 C 12.089 159.751,11.872 168.223,11.711 185.345 C 11.580 199.345,11.321 210.800,11.136 210.800 C 10.951 210.800,10.800 211.340,10.800 212.000 C 10.800 212.660,10.951 213.200,11.136 213.200 C 11.321 213.200,11.580 224.655,11.711 238.655 C 11.872 255.777,12.089 264.249,12.375 264.535 C 12.631 264.791,12.800 267.000,12.800 270.080 C 12.800 272.896,12.954 275.200,13.143 275.200 C 13.331 275.200,13.616 278.394,13.776 282.297 C 13.935 286.200,14.204 289.485,14.372 289.597 C 14.541 289.709,14.796 291.600,14.939 293.800 C 15.082 296.000,15.315 298.250,15.456 298.800 C 15.598 299.350,15.795 300.745,15.894 301.900 C 15.993 303.055,16.214 304.000,16.385 304.000 C 16.557 304.000,16.821 305.260,16.973 306.800 C 17.124 308.340,17.418 309.600,17.624 309.600 C 17.831 309.600,18.000 310.230,18.000 311.000 C 18.000 311.770,18.164 312.400,18.365 312.400 C 18.566 312.400,18.851 313.120,19.000 314.000 C 19.149 314.880,19.422 315.600,19.608 315.600 C 19.794 315.600,20.062 315.965,20.204 316.412 C 20.464 317.232,28.570 325.598,29.109 325.602 C 29.269 325.604,30.376 326.504,31.568 327.602 C 32.760 328.701,33.859 329.600,34.009 329.600 C 34.160 329.600,34.732 330.005,35.280 330.500 C 37.123 332.165,38.570 333.200,39.053 333.200 C 39.317 333.200,39.593 333.336,39.667 333.502 C 39.780 333.760,41.218 334.923,44.981 337.802 C 45.411 338.131,45.981 338.400,46.248 338.400 C 46.515 338.400,46.793 338.535,46.867 338.700 C 47.072 339.161,49.897 341.200,50.331 341.200 C 50.542 341.200,50.818 341.470,50.945 341.800 C 51.071 342.130,51.521 342.400,51.945 342.400 C 52.368 342.400,52.819 342.673,52.947 343.006 C 53.075 343.339,53.634 343.785,54.190 343.996 C 54.745 344.207,55.200 344.565,55.200 344.790 C 55.200 345.016,55.457 345.200,55.771 345.200 C 56.086 345.200,56.588 345.425,56.888 345.700 C 57.685 346.430,58.899 347.189,59.700 347.458 C 60.085 347.588,60.400 347.811,60.400 347.956 C 60.400 348.100,61.030 348.557,61.800 348.972 C 62.570 349.387,63.200 349.858,63.200 350.020 C 63.200 350.181,63.650 350.426,64.200 350.564 C 64.750 350.702,65.200 350.992,65.200 351.208 C 65.200 351.423,65.470 351.600,65.800 351.600 C 66.130 351.600,66.400 351.777,66.400 351.992 C 66.400 352.208,66.850 352.498,67.400 352.636 C 67.950 352.774,68.400 353.047,68.400 353.243 C 68.400 353.440,68.670 353.600,69.000 353.600 C 69.330 353.600,69.600 353.777,69.600 353.992 C 69.600 354.208,70.050 354.498,70.600 354.636 C 71.150 354.774,71.600 355.047,71.600 355.243 C 71.600 355.440,71.793 355.600,72.029 355.600 C 72.264 355.600,72.708 355.825,73.015 356.100 C 74.173 357.139,74.554 357.375,78.500 359.500 C 79.215 359.885,79.890 360.294,80.000 360.409 C 80.348 360.772,85.341 363.895,86.802 364.663 C 87.573 365.068,88.770 365.805,89.463 366.300 C 90.156 366.795,91.011 367.200,91.362 367.200 C 91.713 367.200,92.000 367.352,92.000 367.537 C 92.000 367.722,92.672 368.217,93.494 368.637 C 94.316 369.057,95.228 369.625,95.522 369.900 C 95.817 370.175,96.314 370.400,96.629 370.400 C 96.943 370.400,97.200 370.580,97.200 370.800 C 97.200 371.020,97.470 371.200,97.800 371.200 C 98.130 371.200,98.400 371.341,98.400 371.512 C 98.400 371.684,98.895 372.038,99.500 372.299 C 100.105 372.559,101.500 373.311,102.600 373.970 C 103.700 374.628,105.230 375.489,106.000 375.883 C 106.770 376.278,107.638 376.825,107.929 377.100 C 108.219 377.375,108.714 377.600,109.029 377.600 C 109.343 377.600,109.600 377.780,109.600 378.000 C 109.600 378.220,109.789 378.400,110.019 378.400 C 110.250 378.400,111.389 379.008,112.551 379.751 C 113.713 380.495,115.085 381.237,115.601 381.400 C 116.117 381.564,116.909 382.043,117.361 382.464 C 117.814 382.886,118.593 383.334,119.092 383.459 C 119.591 383.584,120.000 383.833,120.000 384.012 C 120.000 384.190,120.540 384.455,121.200 384.600 C 121.860 384.745,122.400 385.002,122.400 385.171 C 122.400 385.340,123.165 385.816,124.100 386.228 C 125.035 386.641,125.890 387.075,126.000 387.193 C 126.110 387.311,126.920 387.766,127.800 388.204 C 128.680 388.642,129.490 389.116,129.600 389.259 C 129.710 389.401,130.565 389.849,131.500 390.253 C 132.435 390.658,133.200 391.112,133.200 391.263 C 133.200 391.413,133.740 391.655,134.400 391.800 C 135.060 391.945,135.600 392.187,135.600 392.337 C 135.600 392.488,136.365 392.942,137.300 393.347 C 138.235 393.751,139.090 394.212,139.200 394.370 C 139.481 394.775,144.564 397.200,145.132 397.200 C 145.389 397.200,145.600 397.380,145.600 397.600 C 145.600 397.820,145.870 398.000,146.200 398.000 C 146.530 398.000,146.800 398.172,146.800 398.382 C 146.800 398.592,147.430 398.882,148.200 399.026 C 148.970 399.171,149.600 399.449,149.600 399.645 C 149.600 399.840,149.870 400.000,150.200 400.000 C 150.530 400.000,150.800 400.166,150.800 400.368 C 150.800 400.571,151.340 400.855,152.000 401.000 C 152.660 401.145,153.200 401.429,153.200 401.632 C 153.200 401.834,153.560 402.000,154.000 402.000 C 154.440 402.000,154.800 402.166,154.800 402.368 C 154.800 402.571,155.340 402.855,156.000 403.000 C 156.660 403.145,157.200 403.421,157.200 403.614 C 157.200 403.806,157.830 404.082,158.600 404.226 C 159.370 404.371,160.000 404.649,160.000 404.845 C 160.000 405.040,160.270 405.200,160.600 405.200 C 160.930 405.200,161.200 405.380,161.200 405.600 C 161.200 405.820,161.411 406.000,161.670 406.000 C 162.073 406.000,166.443 407.978,170.132 409.831 C 170.755 410.144,171.520 410.400,171.832 410.400 C 172.145 410.400,172.400 410.572,172.400 410.782 C 172.400 410.992,173.075 411.288,173.900 411.440 C 174.725 411.591,175.490 411.834,175.600 411.979 C 175.933 412.417,178.677 413.600,179.360 413.600 C 179.712 413.600,180.000 413.780,180.000 414.000 C 180.000 414.220,180.249 414.400,180.554 414.400 C 180.859 414.400,181.624 414.669,182.254 414.998 C 182.884 415.326,183.715 415.596,184.100 415.598 C 184.485 415.599,184.800 415.763,184.800 415.962 C 184.800 416.162,185.700 416.449,186.800 416.600 C 187.900 416.751,188.800 417.038,188.800 417.238 C 188.800 417.437,189.124 417.600,189.520 417.600 C 189.916 417.600,190.425 417.785,190.651 418.011 C 190.876 418.236,191.992 418.532,193.131 418.666 C 194.269 418.801,195.200 419.066,195.200 419.256 C 195.200 419.445,197.360 419.600,200.000 419.600 C 202.640 419.600,204.800 419.445,204.800 419.256 C 204.800 419.066,205.686 418.806,206.769 418.678 C 207.853 418.550,209.113 418.255,209.569 418.022 C 210.026 417.790,210.752 417.423,211.183 417.208 C 211.613 416.992,212.693 416.699,213.583 416.556 C 214.472 416.414,215.200 416.141,215.200 415.949 C 215.200 415.757,215.515 415.599,215.900 415.598 C 216.285 415.597,217.486 415.147,218.568 414.598 C 219.650 414.049,220.703 413.600,220.907 413.600 C 221.387 413.600,224.138 412.323,224.400 411.979 C 224.510 411.834,225.275 411.591,226.100 411.440 C 226.925 411.288,227.600 410.992,227.600 410.782 C 227.600 410.572,227.855 410.400,228.168 410.400 C 228.835 410.400,231.340 409.135,231.533 408.700 C 231.607 408.535,232.021 408.400,232.455 408.400 C 232.889 408.400,234.214 407.860,235.400 407.200 C 236.586 406.540,237.836 406.000,238.178 406.000 C 238.520 406.000,238.800 405.820,238.800 405.600 C 238.800 405.380,239.070 405.200,239.400 405.200 C 239.730 405.200,240.000 405.040,240.000 404.845 C 240.000 404.649,240.617 404.373,241.371 404.232 C 242.125 404.090,242.800 403.845,242.871 403.687 C 243.062 403.262,245.576 402.000,246.232 402.000 C 246.545 402.000,246.800 401.834,246.800 401.632 C 246.800 401.429,247.340 401.145,248.000 401.000 C 248.660 400.855,249.200 400.571,249.200 400.368 C 249.200 400.166,249.470 400.000,249.800 400.000 C 250.130 400.000,250.400 399.840,250.400 399.645 C 250.400 399.449,251.030 399.171,251.800 399.026 C 252.570 398.882,253.200 398.592,253.200 398.382 C 253.200 398.172,253.470 398.000,253.800 398.000 C 254.130 398.000,254.400 397.820,254.400 397.600 C 254.400 397.380,254.611 397.200,254.868 397.200 C 255.641 397.200,260.400 394.762,260.400 394.367 C 260.400 394.165,260.598 394.000,260.840 394.000 C 261.375 394.000,264.122 392.746,264.400 392.375 C 264.510 392.228,265.050 391.969,265.600 391.800 C 266.150 391.631,266.690 391.381,266.800 391.246 C 267.014 390.983,269.077 389.835,272.000 388.354 C 272.990 387.852,274.038 387.207,274.329 386.921 C 274.619 386.634,275.114 386.400,275.429 386.400 C 275.743 386.400,276.000 386.220,276.000 386.000 C 276.000 385.780,276.360 385.600,276.800 385.600 C 277.240 385.600,277.600 385.434,277.600 385.232 C 277.600 385.029,278.140 384.745,278.800 384.600 C 279.460 384.455,280.000 384.192,280.000 384.015 C 280.000 383.838,280.315 383.588,280.700 383.458 C 281.460 383.203,282.879 382.349,283.200 381.954 C 283.310 381.819,283.850 381.568,284.400 381.397 C 284.950 381.227,286.027 380.662,286.793 380.144 C 287.559 379.625,288.414 379.200,288.693 379.200 C 288.972 379.200,289.200 379.020,289.200 378.800 C 289.200 378.580,289.470 378.400,289.800 378.400 C 290.130 378.400,290.400 378.220,290.400 378.000 C 290.400 377.780,290.657 377.600,290.971 377.600 C 291.286 377.600,291.781 377.375,292.071 377.100 C 292.362 376.825,293.275 376.288,294.100 375.906 C 294.925 375.525,295.600 375.053,295.600 374.856 C 295.600 374.660,296.095 374.400,296.700 374.277 C 297.305 374.155,298.165 373.728,298.611 373.327 C 299.057 372.927,300.137 372.240,301.011 371.801 C 301.885 371.361,302.838 370.776,303.129 370.501 C 303.419 370.225,303.914 370.000,304.229 370.000 C 304.543 370.000,304.800 369.840,304.800 369.643 C 304.800 369.447,305.209 369.184,305.708 369.059 C 306.207 368.934,306.972 368.509,307.408 368.115 C 307.844 367.722,308.830 367.078,309.600 366.684 C 311.826 365.545,312.889 364.899,313.154 364.525 C 313.289 364.334,314.165 363.841,315.100 363.428 C 316.035 363.016,316.800 362.545,316.800 362.383 C 316.800 362.220,317.250 361.974,317.800 361.836 C 318.350 361.698,318.800 361.408,318.800 361.192 C 318.800 360.977,319.070 360.800,319.400 360.800 C 319.730 360.800,320.000 360.620,320.000 360.400 C 320.000 360.180,320.209 360.000,320.465 360.000 C 320.922 360.000,324.808 357.675,325.200 357.167 C 325.310 357.024,325.805 356.781,326.300 356.627 C 326.795 356.472,327.200 356.178,327.200 355.973 C 327.200 355.768,327.470 355.600,327.800 355.600 C 328.130 355.600,328.400 355.440,328.400 355.243 C 328.400 355.047,328.850 354.774,329.400 354.636 C 329.950 354.498,330.400 354.208,330.400 353.992 C 330.400 353.777,330.670 353.600,331.000 353.600 C 331.330 353.600,331.600 353.423,331.600 353.208 C 331.600 352.992,332.050 352.702,332.600 352.564 C 333.150 352.426,333.600 352.153,333.600 351.957 C 333.600 351.760,333.759 351.600,333.954 351.600 C 334.323 351.600,339.250 348.434,339.600 347.972 C 339.710 347.827,340.205 347.581,340.700 347.427 C 341.195 347.272,341.600 346.978,341.600 346.773 C 341.600 346.568,341.855 346.400,342.167 346.400 C 342.478 346.400,342.793 346.257,342.867 346.082 C 342.940 345.907,343.945 345.156,345.100 344.414 C 346.255 343.672,347.200 342.935,347.200 342.776 C 347.200 342.617,347.650 342.374,348.200 342.236 C 348.750 342.098,349.200 341.808,349.200 341.592 C 349.200 341.377,349.455 341.200,349.767 341.200 C 350.078 341.200,350.393 341.065,350.467 340.900 C 350.652 340.483,354.344 338.000,354.778 338.000 C 354.974 338.000,355.193 337.865,355.267 337.700 C 355.465 337.255,358.699 334.800,359.088 334.800 C 359.273 334.800,359.683 334.440,360.000 334.000 C 360.317 333.560,360.781 333.200,361.030 333.200 C 361.279 333.200,361.952 332.795,362.526 332.300 C 363.542 331.423,364.163 330.931,366.570 329.093 C 367.213 328.602,368.027 327.930,368.377 327.600 C 368.727 327.270,369.814 326.370,370.791 325.600 C 375.758 321.686,380.422 316.233,380.981 313.685 C 381.137 312.978,381.429 312.400,381.632 312.400 C 381.834 312.400,382.000 311.785,382.000 311.033 C 382.000 310.282,382.175 309.607,382.389 309.533 C 382.603 309.460,382.899 308.095,383.046 306.500 C 383.194 304.905,383.469 303.600,383.657 303.600 C 383.846 303.600,384.000 302.730,384.000 301.667 C 384.000 300.603,384.125 299.608,384.278 299.455 C 384.654 299.079,384.740 298.451,385.053 293.800 C 385.200 291.600,385.461 289.708,385.631 289.595 C 385.802 289.482,386.071 286.101,386.230 282.082 C 386.388 278.063,386.671 274.679,386.859 274.564 C 387.047 274.448,387.200 272.038,387.200 269.210 C 387.200 265.946,387.355 264.015,387.623 263.926 C 387.912 263.829,388.124 255.725,388.288 238.476 C 388.420 224.557,388.679 213.075,388.864 212.960 C 389.302 212.690,389.302 210.800,388.864 210.800 C 388.679 210.800,388.420 199.239,388.289 185.109 C 388.126 167.510,387.917 159.372,387.626 159.275 C 387.354 159.185,387.200 157.262,387.200 153.967 C 387.200 151.125,387.046 148.800,386.857 148.800 C 386.669 148.800,386.384 145.606,386.224 141.703 C 386.065 137.800,385.795 134.515,385.626 134.403 C 385.457 134.291,385.192 132.040,385.037 129.400 C 384.883 126.760,384.587 124.429,384.378 124.220 C 384.170 124.011,384.000 122.976,384.000 121.920 C 384.000 120.864,383.841 120.000,383.647 120.000 C 383.453 120.000,383.167 118.650,383.013 117.000 C 382.858 115.350,382.567 114.000,382.366 114.000 C 382.165 114.000,382.000 113.460,382.000 112.800 C 382.000 112.140,381.820 111.600,381.600 111.600 C 381.380 111.600,381.200 111.222,381.200 110.760 C 381.200 109.608,380.037 107.230,378.814 105.881 C 375.794 102.550,371.260 98.238,368.845 96.400 C 368.122 95.850,367.289 95.175,366.994 94.900 C 366.699 94.625,366.340 94.400,366.198 94.400 C 366.055 94.400,365.398 93.860,364.738 93.200 C 364.078 92.540,363.417 92.000,363.269 92.000 C 363.121 91.999,362.477 91.549,361.838 91.000 C 361.199 90.450,360.477 90.000,360.234 90.000 C 359.991 90.000,359.568 89.640,359.293 89.200 C 359.018 88.760,358.534 88.400,358.216 88.400 C 357.899 88.400,357.496 88.167,357.320 87.882 C 356.948 87.278,352.078 84.000,351.554 84.000 C 351.359 84.000,351.200 83.814,351.200 83.587 C 351.200 83.361,350.885 83.055,350.500 82.908 C 350.115 82.761,349.352 82.227,348.804 81.721 C 348.256 81.214,347.677 80.800,347.516 80.800 C 347.176 80.800,341.253 76.853,340.471 76.105 C 340.181 75.827,339.686 75.600,339.371 75.600 C 339.057 75.600,338.800 75.459,338.800 75.286 C 338.800 75.114,338.215 74.632,337.500 74.216 C 336.785 73.801,336.110 73.355,336.000 73.226 C 335.890 73.098,335.125 72.638,334.300 72.205 C 333.475 71.772,332.800 71.299,332.800 71.152 C 332.800 71.006,332.350 70.774,331.800 70.636 C 331.250 70.498,330.800 70.208,330.800 69.992 C 330.800 69.777,330.530 69.600,330.200 69.600 C 329.870 69.600,329.600 69.423,329.600 69.208 C 329.600 68.992,329.150 68.702,328.600 68.564 C 328.050 68.426,327.600 68.153,327.600 67.957 C 327.600 67.760,327.330 67.600,327.000 67.600 C 326.670 67.600,326.400 67.423,326.400 67.208 C 326.400 66.992,325.950 66.702,325.400 66.564 C 324.850 66.426,324.400 66.194,324.400 66.048 C 324.400 65.901,323.725 65.426,322.900 64.992 C 322.075 64.557,321.162 63.976,320.871 63.701 C 320.581 63.425,320.086 63.200,319.771 63.200 C 319.457 63.200,319.200 63.020,319.200 62.800 C 319.200 62.580,318.930 62.400,318.600 62.400 C 318.270 62.400,318.000 62.223,318.000 62.008 C 318.000 61.792,317.550 61.502,317.000 61.364 C 316.450 61.226,316.000 60.985,316.000 60.828 C 316.000 60.670,315.235 60.143,314.300 59.656 C 312.411 58.671,311.103 57.903,310.800 57.600 C 310.396 57.196,308.980 56.370,308.300 56.142 C 307.915 56.012,307.600 55.748,307.600 55.553 C 307.600 55.359,307.240 55.200,306.800 55.200 C 306.360 55.200,306.000 55.032,306.000 54.827 C 306.000 54.622,305.595 54.328,305.100 54.173 C 304.605 54.019,304.110 53.781,304.000 53.646 C 303.679 53.251,302.260 52.397,301.500 52.142 C 301.115 52.012,300.800 51.762,300.800 51.585 C 300.800 51.408,300.260 51.145,299.600 51.000 C 298.940 50.855,298.400 50.599,298.400 50.431 C 298.400 50.263,297.725 49.783,296.900 49.363 C 296.075 48.943,295.310 48.487,295.200 48.349 C 295.090 48.211,293.560 47.334,291.800 46.400 C 290.040 45.466,288.510 44.569,288.400 44.405 C 288.290 44.242,287.750 43.969,287.200 43.800 C 286.650 43.631,286.110 43.355,286.000 43.188 C 285.890 43.020,284.450 42.167,282.800 41.292 C 277.770 38.626,277.008 38.208,276.800 38.000 C 276.522 37.722,273.775 36.234,271.500 35.128 C 270.455 34.620,269.600 34.069,269.600 33.902 C 269.600 33.736,269.355 33.600,269.056 33.600 C 268.757 33.600,267.875 33.168,267.097 32.640 C 266.319 32.112,265.259 31.548,264.741 31.386 C 264.224 31.224,263.710 30.981,263.600 30.846 C 263.192 30.344,260.855 29.200,260.238 29.200 C 259.887 29.200,259.600 29.060,259.600 28.890 C 259.600 28.719,258.792 28.224,257.804 27.790 C 256.816 27.355,256.006 26.865,256.004 26.700 C 256.002 26.535,255.685 26.399,255.300 26.398 C 254.915 26.397,253.790 25.858,252.800 25.200 C 251.810 24.542,250.758 24.003,250.462 24.002 C 250.166 24.001,249.446 23.664,248.862 23.253 C 247.300 22.153,236.151 16.800,235.423 16.800 C 235.080 16.800,234.800 16.620,234.800 16.400 C 234.800 16.180,234.530 16.000,234.200 16.000 C 233.870 16.000,233.600 15.828,233.600 15.618 C 233.600 15.408,232.970 15.118,232.200 14.974 C 231.430 14.829,230.800 14.565,230.800 14.387 C 230.800 14.209,230.262 13.945,229.605 13.801 C 228.947 13.657,228.306 13.372,228.181 13.169 C 228.055 12.966,227.603 12.800,227.176 12.800 C 226.749 12.800,226.400 12.620,226.400 12.400 C 226.400 12.180,226.202 12.000,225.960 12.000 C 225.719 12.000,224.864 11.712,224.060 11.359 C 223.257 11.007,222.240 10.569,221.800 10.386 C 219.307 9.351,217.853 8.735,216.640 8.200 C 215.891 7.870,214.991 7.600,214.640 7.600 C 214.288 7.600,214.000 7.437,214.000 7.238 C 214.000 7.038,213.100 6.751,212.000 6.600 C 210.900 6.449,210.000 6.162,210.000 5.962 C 210.000 5.763,209.550 5.600,209.000 5.600 C 208.450 5.600,208.000 5.431,208.000 5.224 C 208.000 5.018,206.740 4.724,205.200 4.573 C 203.660 4.421,202.400 4.140,202.400 3.948 C 202.400 3.757,201.320 3.600,200.000 3.600 C 198.680 3.600,197.600 3.757,197.600 3.948 M153.247 85.100 C 153.718 85.485,154.557 86.205,155.110 86.700 C 155.664 87.195,156.233 87.600,156.376 87.600 C 156.519 87.600,157.376 88.275,158.281 89.100 C 164.327 94.612,166.821 96.970,169.529 99.732 C 171.218 101.454,172.831 103.074,173.114 103.332 C 174.243 104.361,174.663 104.808,176.200 106.617 C 177.080 107.653,178.160 108.883,178.600 109.351 C 179.040 109.818,179.850 110.874,180.400 111.698 C 180.950 112.521,181.535 113.196,181.700 113.197 C 181.865 113.199,182.000 113.536,182.000 113.948 C 182.000 114.837,180.393 115.189,176.300 115.196 C 174.770 115.198,173.600 115.373,173.600 115.600 C 173.600 115.821,172.552 116.000,171.256 116.000 L 168.911 116.000 168.659 118.100 C 168.520 119.255,168.405 121.829,168.403 123.820 C 168.402 125.811,168.232 127.611,168.026 127.820 C 167.808 128.041,167.472 140.737,167.222 158.200 C 166.986 174.700,166.677 191.935,166.534 196.500 L 166.274 204.800 199.595 204.800 L 232.915 204.800 232.623 172.700 C 232.452 154.013,232.177 140.544,231.965 140.467 C 231.496 140.295,231.484 135.200,231.953 135.200 C 232.148 135.200,232.401 134.840,232.516 134.400 C 232.631 133.960,233.012 133.600,233.363 133.600 C 233.713 133.600,234.000 133.420,234.000 133.200 C 234.000 132.941,239.000 132.800,248.200 132.800 C 256.249 132.800,262.400 132.954,262.400 133.157 C 262.400 133.353,262.850 133.626,263.400 133.764 L 264.400 134.015 264.400 148.174 C 264.400 159.146,264.287 162.371,263.900 162.500 C 263.502 162.633,263.400 177.312,263.400 234.113 C 263.400 290.737,263.504 305.664,263.900 306.060 C 264.175 306.335,264.400 306.856,264.400 307.219 C 264.400 307.792,265.243 307.913,270.886 308.155 C 279.422 308.520,279.718 309.022,274.607 314.474 C 274.053 315.065,273.600 315.661,273.600 315.797 C 273.600 316.100,263.607 326.426,260.732 329.094 C 260.440 329.366,259.660 330.137,259.000 330.808 C 258.340 331.480,257.109 332.607,256.265 333.314 C 255.420 334.021,253.988 335.275,253.082 336.100 C 252.176 336.925,251.305 337.600,251.146 337.600 C 250.987 337.600,250.611 337.846,250.310 338.147 C 249.382 339.075,248.137 339.280,247.471 338.614 C 247.133 338.276,246.679 338.000,246.462 338.000 C 246.245 338.000,246.007 337.858,245.933 337.685 C 245.860 337.512,245.005 336.747,244.033 335.985 C 243.061 335.223,241.782 334.150,241.191 333.600 C 240.600 333.050,238.626 331.250,236.804 329.600 C 234.983 327.950,233.291 326.375,233.046 326.100 C 232.637 325.641,229.000 322.014,227.878 320.945 C 227.615 320.694,226.680 319.645,225.800 318.613 C 224.920 317.581,223.345 315.818,222.300 314.695 C 221.255 313.572,220.400 312.519,220.400 312.355 C 220.400 312.191,220.154 311.811,219.853 311.510 C 217.420 309.078,218.603 308.418,225.913 308.130 L 232.370 307.876 232.575 306.238 C 232.687 305.337,232.893 290.830,233.033 274.000 C 233.364 233.943,233.365 234.805,233.013 233.300 L 232.709 232.000 199.889 232.000 L 167.069 232.000 167.329 260.898 C 167.500 279.831,167.729 289.843,167.995 289.932 C 168.563 290.121,168.500 292.116,167.889 293.294 C 166.640 295.700,167.342 295.600,151.774 295.600 L 137.492 295.600 136.546 294.579 C 135.441 293.387,135.021 272.739,136.080 271.680 C 136.732 271.028,136.682 152.294,136.029 152.076 C 135.733 151.978,135.600 146.818,135.600 135.390 C 135.600 124.793,135.456 118.758,135.200 118.600 C 134.980 118.464,134.800 117.823,134.800 117.176 C 134.800 116.019,134.765 116.000,132.624 116.000 C 131.427 116.000,130.351 115.844,130.233 115.653 C 130.115 115.462,128.124 115.221,125.808 115.118 C 121.189 114.913,120.752 114.758,121.736 113.671 C 122.101 113.267,122.400 112.808,122.400 112.651 C 122.400 112.494,122.850 111.880,123.400 111.287 C 123.950 110.693,124.400 110.081,124.400 109.926 C 124.400 109.770,125.795 108.198,127.500 106.431 C 129.205 104.665,131.500 102.226,132.600 101.011 C 133.700 99.797,134.722 98.803,134.872 98.802 C 135.021 98.801,136.858 97.135,138.954 95.100 C 141.049 93.065,143.267 91.005,143.882 90.523 C 144.497 90.041,145.596 89.096,146.325 88.423 C 147.053 87.750,147.741 87.200,147.853 87.200 C 147.965 87.200,148.308 86.975,148.615 86.700 C 149.938 85.513,150.391 85.200,150.783 85.200 C 151.012 85.200,151.200 85.020,151.200 84.800 C 151.200 84.170,152.308 84.332,153.247 85.100 " stroke="none" fill="#33cc66" fill-rule="evenodd"></path><path id="path3" d="M386.509 146.800 C 386.509 147.790,386.587 148.195,386.682 147.700 C 386.778 147.205,386.778 146.395,386.682 145.900 C 386.587 145.405,386.509 145.810,386.509 146.800 M13.301 147.000 C 13.305 147.880,13.387 148.193,13.483 147.695 C 13.579 147.198,13.575 146.478,13.475 146.095 C 13.375 145.713,13.296 146.120,13.301 147.000 M166.942 149.400 C 166.941 151.380,167.008 152.240,167.092 151.312 C 167.176 150.384,167.177 148.764,167.095 147.712 C 167.012 146.660,166.943 147.420,166.942 149.400 M166.966 170.000 C 166.966 174.070,167.025 175.735,167.098 173.700 C 167.171 171.665,167.171 168.335,167.098 166.300 C 167.025 164.265,166.966 165.930,166.966 170.000 M232.953 175.400 C 232.953 178.040,233.018 179.068,233.097 177.684 C 233.175 176.301,233.174 174.141,233.095 172.884 C 233.016 171.628,232.952 172.760,232.953 175.400 M166.977 244.600 C 166.977 251.200,167.032 253.956,167.099 250.725 C 167.166 247.493,167.166 242.093,167.099 238.725 C 167.032 235.356,166.977 238.000,166.977 244.600 M232.959 259.200 C 232.959 262.390,233.021 263.695,233.097 262.100 C 233.173 260.505,233.173 257.895,233.097 256.300 C 233.021 254.705,232.959 256.010,232.959 259.200 M166.940 267.600 C 166.940 269.470,167.009 270.235,167.093 269.300 C 167.177 268.365,167.177 266.835,167.093 265.900 C 167.009 264.965,166.940 265.730,166.940 267.600 M386.559 274.962 C 386.441 275.271,386.407 276.126,386.483 276.862 C 386.606 278.035,386.647 277.966,386.815 276.300 C 387.011 274.352,386.939 273.974,386.559 274.962 M13.309 276.800 C 13.309 277.790,13.387 278.195,13.482 277.700 C 13.578 277.205,13.578 276.395,13.482 275.900 C 13.387 275.405,13.309 275.810,13.309 276.800 M232.979 292.800 C 232.979 300.170,233.033 303.185,233.099 299.500 C 233.165 295.815,233.165 289.785,233.099 286.100 C 233.033 282.415,232.979 285.430,232.979 292.800 " stroke="none" fill="#33cc66" fill-rule="evenodd"></path><path id="path4" d="M166.954 157.600 C 166.954 160.350,167.018 161.475,167.096 160.100 C 167.174 158.725,167.174 156.475,167.096 155.100 C 167.018 153.725,166.954 154.850,166.954 157.600 M232.978 192.000 C 232.978 198.710,233.032 201.455,233.099 198.100 C 233.166 194.745,233.166 189.255,233.099 185.900 C 233.032 182.545,232.978 185.290,232.978 192.000 M166.942 261.000 C 166.941 262.980,167.008 263.840,167.092 262.912 C 167.176 261.984,167.177 260.364,167.095 259.312 C 167.012 258.260,166.943 259.020,166.942 261.000 M232.965 272.800 C 232.965 276.650,233.025 278.225,233.098 276.300 C 233.171 274.375,233.171 271.225,233.098 269.300 C 233.025 267.375,232.965 268.950,232.965 272.800 " stroke="none" fill="#33cc66" fill-rule="evenodd"></path></g></svg>
